<svg width="1400" height="891" viewBox="0 0 1400 891" fill="none" xmlns="http://www.w3.org/2000/svg">
  <path
    d="M36.7356 -8.07072C3.75057 17.8735 -37.8613 120.054 59.5713 321.222C114.667 434.978 -58.4134 473.894 162.332 683.444C291.626 806.18 436.362 890 436.362 890M143.303 -41C103.974 -12.0621 39.0193 92.5132 93.8252 279.312C137.74 428.99 10.0939 449.539 337.407 662.489C383.078 692.203 295.541 728.347 565.764 890M360.242 -8.07073C301.884 20.8671 186.69 106.284 192.78 216.447C200.392 354.151 504.869 420.01 516.287 563.701C525.421 678.654 596.212 729.345 630.466 740.322C677.406 769.259 780.421 835.517 816.958 869.045M436.362 -41C389.422 9.89069 297.063 132.627 303.153 216.447C313.489 358.72 495.651 460.123 634.5 530.557M634.5 530.557C714.765 571.273 780.557 601.641 790.316 623.572C799.197 641.534 830.659 682.246 885.465 701.405C953.972 725.354 874.047 764.27 1007.26 857.071M634.5 530.557C514.973 434.122 337.407 306.157 337.407 165.556C337.407 100.895 428.75 14.88 474.421 -20.045M634.5 530.557C695.138 579.48 740.839 620.288 740.839 650.514C740.839 722.36 882.928 840.107 953.973 890M969.196 6.89711C956.51 7.89497 938.749 47.6097 938.749 90.717C938.749 144.601 885.465 165.556 835.988 216.447C786.51 267.338 1125.24 321.222 1148.08 563.701C1156.26 576.122 1157.44 584.407 1158.18 593.03M1158.18 593.03C1159.61 609.653 1159.41 627.531 1204.67 678.712M1158.18 593.03C1137.61 581.524 1116.06 569.185 1093.56 555.977M1158.18 593.03C1304.76 675.018 1401.53 714.698 1437.33 725.354M1204.67 678.712C1237.79 716.156 1295.24 771.426 1395.46 857.071M1204.67 678.712C1144.07 640.17 1097.52 599.076 1094.79 563.701C1094.6 561.181 1094.18 558.606 1093.56 555.977M1204.67 678.712C1279.46 726.275 1375.66 769.953 1437.33 794.206M835.988 -8.07073C851.212 10.8885 872.525 52.9981 835.988 69.7621C790.316 90.7171 649.496 153.582 695.167 216.447C739.674 277.709 1069.71 455.526 1093.56 555.977M1093.56 555.977C1066.18 539.904 1037.39 522.544 1007.26 503.83C718.004 324.215 660.914 387.08 539.123 267.338C417.332 147.595 596.212 102.691 676.137 69.7621C740.077 43.4187 730.689 16.8757 718.003 6.89712M565.764 -8.07073C509.944 27.5295 399.825 122.273 405.914 216.447C413.526 334.164 641.883 497.842 790.316 530.772C938.749 563.701 1071.96 626.566 1056.73 725.354C1044.55 804.384 1226.73 868.047 1319.34 890M995.838 0.909974C999.617 57.3872 1051.43 183.521 1228.03 239.221M1228.03 239.221C1229.28 239.616 1230.54 240.008 1231.81 240.396C1411.45 295.477 1453.82 456.93 1452.55 530.772M1228.03 239.221C1288.19 150.116 1313.85 46.7061 1319.34 0.90997M1228.03 239.221C1218.72 253.017 1208.57 266.469 1197.55 279.312C1115.34 375.106 1244.49 508.819 1319.34 563.701C1367.55 585.654 1467.78 625.369 1483 608.605"
    stroke="#EACB1E" stroke-opacity="0.09" stroke-width="2" />
</svg>